<svg width="23" height="21" viewBox="0 0 23 21" fill="none" xmlns="http://www.w3.org/2000/svg">
<path d="M12.6475 19.0992L11.5574 20.1398C11.0957 20.5805 10.3493 20.5805 9.89262 20.1398L0.346192 11.032C-0.115415 10.5914 -0.115415 9.87889 0.346192 9.44296L9.89262 0.330455C10.3542 -0.110171 11.1007 -0.110171 11.5574 0.330455L12.6475 1.37108C13.1141 1.81639 13.1042 2.54295 12.6279 2.97889L6.71048 8.36014L20.8239 8.36014C21.477 8.36014 22.0024 8.86171 22.0024 9.48515L22.0024 10.9851C22.0024 11.6086 21.477 12.1101 20.8239 12.1101L6.71048 12.1101L12.6279 17.4914C13.1091 17.9273 13.119 18.6539 12.6475 19.0992Z" fill="#FF6B18"/>
</svg>
