<svg width="146" height="25" viewBox="0 0 146 25" fill="none" xmlns="http://www.w3.org/2000/svg">
<path d="M18.5312 5.04688H11.5625V24H6.875V5.04688H0V1.25H18.5312V5.04688Z" fill="#FF6B18"/>
<path d="M27.2969 24.3125C24.8177 24.3125 22.7969 23.5521 21.2344 22.0312C19.6823 20.5104 18.9062 18.4844 18.9062 15.9531V15.5156C18.9062 13.8177 19.2344 12.3021 19.8906 10.9688C20.5469 9.625 21.474 8.59375 22.6719 7.875C23.8802 7.14583 25.2552 6.78125 26.7969 6.78125C29.1094 6.78125 30.9271 7.51042 32.25 8.96875C33.5833 10.4271 34.25 12.4948 34.25 15.1719V17.0156H23.4844C23.6302 18.1198 24.0677 19.0052 24.7969 19.6719C25.5365 20.3385 26.4688 20.6719 27.5938 20.6719C29.3333 20.6719 30.6927 20.0417 31.6719 18.7812L33.8906 21.2656C33.2135 22.224 32.2969 22.974 31.1406 23.5156C29.9844 24.0469 28.7031 24.3125 27.2969 24.3125ZM26.7812 10.4375C25.8854 10.4375 25.1562 10.7396 24.5938 11.3438C24.0417 11.9479 23.6875 12.8125 23.5312 13.9375H29.8125V13.5781C29.7917 12.5781 29.5208 11.8073 29 11.2656C28.4792 10.7135 27.7396 10.4375 26.7812 10.4375Z" fill="#FF6B18"/>
<path d="M45.9844 19.3281C45.9844 18.776 45.7083 18.3438 45.1562 18.0312C44.6146 17.7083 43.7396 17.4219 42.5312 17.1719C38.5104 16.3281 36.5 14.6198 36.5 12.0469C36.5 10.5469 37.1198 9.29688 38.3594 8.29688C39.6094 7.28646 41.2396 6.78125 43.25 6.78125C45.3958 6.78125 47.1094 7.28646 48.3906 8.29688C49.6823 9.30729 50.3281 10.6198 50.3281 12.2344H45.8125C45.8125 11.5885 45.6042 11.0573 45.1875 10.6406C44.7708 10.2135 44.1198 10 43.2344 10C42.474 10 41.8854 10.1719 41.4688 10.5156C41.0521 10.8594 40.8438 11.2969 40.8438 11.8281C40.8438 12.3281 41.0781 12.7344 41.5469 13.0469C42.026 13.349 42.8281 13.6146 43.9531 13.8438C45.0781 14.0625 46.026 14.3125 46.7969 14.5938C49.1823 15.4688 50.375 16.9844 50.375 19.1406C50.375 20.6823 49.7135 21.9323 48.3906 22.8906C47.0677 23.8385 45.3594 24.3125 43.2656 24.3125C41.849 24.3125 40.5885 24.0625 39.4844 23.5625C38.3906 23.0521 37.5312 22.3594 36.9062 21.4844C36.2812 20.599 35.9688 19.6458 35.9688 18.625H40.25C40.2917 19.4271 40.5885 20.0417 41.1406 20.4688C41.6927 20.8958 42.4323 21.1094 43.3594 21.1094C44.224 21.1094 44.875 20.9479 45.3125 20.625C45.7604 20.2917 45.9844 19.8594 45.9844 19.3281Z" fill="#FF6B18"/>
<path d="M58.7031 2.9375V7.09375H61.5938V10.4062H58.7031V18.8438C58.7031 19.4688 58.8229 19.9167 59.0625 20.1875C59.3021 20.4583 59.7604 20.5938 60.4375 20.5938C60.9375 20.5938 61.3802 20.5573 61.7656 20.4844V23.9062C60.8802 24.1771 59.9688 24.3125 59.0312 24.3125C55.8646 24.3125 54.25 22.7135 54.1875 19.5156V10.4062H51.7188V7.09375H54.1875V2.9375H58.7031Z" fill="#FF6B18"/>
<path d="M71.8906 24.3125C69.4115 24.3125 67.3906 23.5521 65.8281 22.0312C64.276 20.5104 63.5 18.4844 63.5 15.9531V15.5156C63.5 13.8177 63.8281 12.3021 64.4844 10.9688C65.1406 9.625 66.0677 8.59375 67.2656 7.875C68.474 7.14583 69.849 6.78125 71.3906 6.78125C73.7031 6.78125 75.5208 7.51042 76.8438 8.96875C78.1771 10.4271 78.8438 12.4948 78.8438 15.1719V17.0156H68.0781C68.224 18.1198 68.6615 19.0052 69.3906 19.6719C70.1302 20.3385 71.0625 20.6719 72.1875 20.6719C73.9271 20.6719 75.2865 20.0417 76.2656 18.7812L78.4844 21.2656C77.8073 22.224 76.8906 22.974 75.7344 23.5156C74.5781 24.0469 73.2969 24.3125 71.8906 24.3125ZM71.375 10.4375C70.4792 10.4375 69.75 10.7396 69.1875 11.3438C68.6354 11.9479 68.2812 12.8125 68.125 13.9375H74.4062V13.5781C74.3854 12.5781 74.1146 11.8073 73.5938 11.2656C73.0729 10.7135 72.3333 10.4375 71.375 10.4375Z" fill="#FF6B18"/>
<path d="M104.094 17.8594L106.312 7.09375H110.672L106.359 24H102.578L99.375 13.3594L96.1719 24H92.4062L88.0938 7.09375H92.4531L94.6562 17.8438L97.75 7.09375H101.016L104.094 17.8594Z" fill="#FF6B18"/>
<path d="M120.703 24.3125C118.224 24.3125 116.203 23.5521 114.641 22.0312C113.089 20.5104 112.312 18.4844 112.312 15.9531V15.5156C112.312 13.8177 112.641 12.3021 113.297 10.9688C113.953 9.625 114.88 8.59375 116.078 7.875C117.286 7.14583 118.661 6.78125 120.203 6.78125C122.516 6.78125 124.333 7.51042 125.656 8.96875C126.99 10.4271 127.656 12.4948 127.656 15.1719V17.0156H116.891C117.036 18.1198 117.474 19.0052 118.203 19.6719C118.943 20.3385 119.875 20.6719 121 20.6719C122.74 20.6719 124.099 20.0417 125.078 18.7812L127.297 21.2656C126.62 22.224 125.703 22.974 124.547 23.5156C123.391 24.0469 122.109 24.3125 120.703 24.3125ZM120.188 10.4375C119.292 10.4375 118.562 10.7396 118 11.3438C117.448 11.9479 117.094 12.8125 116.938 13.9375H123.219V13.5781C123.198 12.5781 122.927 11.8073 122.406 11.2656C121.885 10.7135 121.146 10.4375 120.188 10.4375Z" fill="#FF6B18"/>
<path d="M145.469 15.7031C145.469 18.4115 144.891 20.526 143.734 22.0469C142.578 23.5573 140.964 24.3125 138.891 24.3125C137.057 24.3125 135.594 23.6094 134.5 22.2031L134.297 24H130.234V0H134.75V8.60938C135.792 7.39062 137.161 6.78125 138.859 6.78125C140.922 6.78125 142.536 7.54167 143.703 9.0625C144.88 10.5729 145.469 12.7031 145.469 15.4531V15.7031ZM140.953 15.375C140.953 13.6667 140.682 12.4219 140.141 11.6406C139.599 10.849 138.792 10.4531 137.719 10.4531C136.281 10.4531 135.292 11.0417 134.75 12.2188V18.8906C135.302 20.0781 136.302 20.6719 137.75 20.6719C139.208 20.6719 140.167 19.9531 140.625 18.5156C140.844 17.8281 140.953 16.7812 140.953 15.375Z" fill="#FF6B18"/>
</svg>
