<svg width="40" height="20" viewBox="0 0 40 20" fill="none" xmlns="http://www.w3.org/2000/svg">
<path fill-rule="evenodd" clip-rule="evenodd" d="M34.733 5.04029C33.534 5.04029 32.3665 5.44372 31.4293 6.19295V5.20271C31.4293 3.42132 32.8848 1.95953 34.6702 1.95953V0C31.9162 0 29.5183 2.35248 29.5183 5.21843L29.5969 5.91527C27.6387 3.59946 24.1518 3.30605 21.8377 5.26558C20.9319 6.02529 20.2984 7.06269 20.0419 8.21536C19.1675 5.2813 16.089 3.60994 13.1571 4.48491C11.2775 5.03505 9.8377 6.54399 9.36649 8.45637L9.0733 9.05366C8.11518 10.8036 7.06283 12.2654 5.25131 12.2654C3.4555 12.2811 1.96335 10.8246 1.94764 9.0065V3.92954H0V8.96983C0 11.8253 2.31414 14.2249 5.19895 14.2249C6.44503 14.2249 7.61257 13.8058 8.42408 13.0723V14.0625C8.42408 15.8439 6.96859 17.3057 5.18325 17.3057V19.2862C8.09948 19.2862 10.4817 16.9337 10.4817 14.0678L10.466 13.3709C12.4764 15.7234 15.9738 15.9958 18.3089 14.0206C19.199 13.2609 19.8325 12.2392 20.1047 11.0865C20.9948 14.0206 24.089 15.692 27.0209 14.8013C28.8848 14.2354 30.3089 12.7422 30.7958 10.8612L31.0733 10.243C32.0314 8.49304 33.0157 7.03126 34.8168 7.03126C36.5969 7.03126 38.0576 8.47209 38.0576 10.2587V10.2902V15.6238H40V10.3111C39.8534 7.43993 37.6178 5.04029 34.733 5.04029ZM14.7277 13.2609C12.8168 13.2609 11.2775 11.7048 11.2775 9.80813C11.2775 7.91147 12.8325 6.35537 14.7277 6.35537C16.6387 6.35537 18.178 7.91147 18.178 9.80813C18.178 11.7048 16.6387 13.2452 14.7277 13.2609ZM21.9843 9.51472C21.9843 11.4114 23.5236 12.9675 25.4346 12.9675C27.3456 12.9675 28.8848 11.4114 28.8848 9.51472C28.8848 7.61807 27.3456 6.06197 25.4346 6.06197C23.5393 6.06197 21.9843 7.61807 21.9843 9.51472Z" fill="#666666"/>
</svg>
