<svg width="12" height="9" viewBox="0 0 12 9" fill="none" xmlns="http://www.w3.org/2000/svg">
<path fill-rule="evenodd" clip-rule="evenodd" d="M11.3996 0.67125C11.7592 1.05975 11.8763 1.94212 11.8763 1.94212C11.8763 1.94212 11.9963 2.9775 11.9963 4.01325V4.98375C11.9963 6.0195 11.8763 7.05487 11.8763 7.05487C11.8763 7.05487 11.7589 7.93687 11.3996 8.32463C10.9882 8.78373 10.5323 8.83138 10.2747 8.85829C10.2466 8.86123 10.2208 8.86392 10.1978 8.86687C8.51888 8.9955 5.99813 9 5.99813 9C5.99813 9 2.87888 8.96963 1.91925 8.87138C1.87383 8.86232 1.81881 8.85524 1.75651 8.84724C1.45261 8.80817 0.975676 8.74687 0.596625 8.32425C0.237 7.9365 0.12 7.0545 0.12 7.0545C0.12 7.0545 0 6.0195 0 4.98338V4.01288C0 2.9775 0.12 1.94212 0.12 1.94212C0.12 1.94212 0.237375 1.05975 0.596625 0.67125C1.00987 0.210507 1.46732 0.164165 1.72429 0.138132C1.75134 0.135391 1.77618 0.132875 1.7985 0.130125C3.477 0 5.99512 0 5.99512 0H6.00075C6.00075 0 8.51888 0 10.1978 0.130125C10.2201 0.132876 10.2449 0.135393 10.272 0.138135C10.529 0.164169 10.9867 0.210526 11.3996 0.67125ZM8.25 4.5L4.5 6.75V2.25L8.25 4.5Z" fill="#FF6B18"/>
</svg>
