<svg width="23" height="21" viewBox="0 0 23 21" fill="none" xmlns="http://www.w3.org/2000/svg">
<path d="M9.35491 1.37109L10.4451 0.330469C10.9067 -0.110156 11.6531 -0.110156 12.1098 0.330469L21.6562 9.43828C22.1179 9.87891 22.1179 10.5914 21.6562 11.0273L12.1098 20.1399C11.6482 20.5805 10.9018 20.5805 10.4451 20.1399L9.35491 19.0992C8.88839 18.6539 8.89821 17.9274 9.37455 17.4914L15.292 12.1102H1.17857C0.525446 12.1102 0 11.6086 0 10.9852V9.48516C0 8.86172 0.525446 8.36016 1.17857 8.36016H15.292L9.37455 2.97891C8.8933 2.54297 8.88348 1.81641 9.35491 1.37109Z" fill="#FF6B18"/>
</svg>
