<svg width="12" height="12" viewBox="0 0 12 12" fill="none" xmlns="http://www.w3.org/2000/svg">
<path fill-rule="evenodd" clip-rule="evenodd" d="M2.35299 0.195557H9.50922C10.7523 0.195557 11.7633 1.20638 11.7636 2.44944V4.83062V9.60614C11.7636 10.8492 10.7525 11.8603 9.50946 11.8603H2.35299C1.10993 11.8603 0.0986328 10.8492 0.0986328 9.60614V4.83085V2.44967C0.0986328 1.20662 1.10993 0.195557 2.35299 0.195557ZM10.4137 1.53886L10.1558 1.5398L8.43628 1.54544L8.4431 3.52239L10.4137 3.51603V1.79556V1.53886ZM4.26616 4.83062C4.6398 4.31368 5.24592 3.97462 5.9311 3.97462C6.61627 3.97462 7.22239 4.31368 7.59557 4.83062C7.83863 5.16803 7.98427 5.58073 7.98427 6.02779C7.98427 7.15979 7.06239 8.08073 5.93086 8.08073C4.79863 8.08073 3.87769 7.15979 3.87769 6.02779C3.87792 5.58073 4.0231 5.16803 4.26616 4.83062ZM9.50922 10.7236C10.1255 10.7236 10.6269 10.2226 10.6269 9.60591V4.83062H8.88523C9.03558 5.2005 9.12052 5.6045 9.12052 6.0278C9.12052 7.78615 7.68993 9.21768 5.93111 9.21768C4.17205 9.21768 2.74146 7.78615 2.74146 6.0278C2.74146 5.6045 2.82593 5.2005 2.97628 4.83062H1.23511V9.60591C1.23511 10.2226 1.73652 10.7236 2.35299 10.7236H9.50922Z" fill="#FF6B18"/>
</svg>
