<svg width="16" height="16" viewBox="0 0 16 16" fill="none" xmlns="http://www.w3.org/2000/svg">
<path d="M1.17981 2.93878H14.5209C14.8043 2.93878 15.034 2.64641 15.034 2.28571V0.653061C15.034 0.292367 14.8043 0 14.5209 0H1.17981C0.896404 0 0.666687 0.292367 0.666687 0.653061V2.28571C0.666687 2.64641 0.896404 2.93878 1.17981 2.93878ZM1.17981 9.46939H14.5209C14.8043 9.46939 15.034 9.17702 15.034 8.81633V7.18367C15.034 6.82298 14.8043 6.53061 14.5209 6.53061H1.17981C0.896404 6.53061 0.666687 6.82298 0.666687 7.18367V8.81633C0.666687 9.17702 0.896404 9.46939 1.17981 9.46939ZM1.17981 16H14.5209C14.8043 16 15.034 15.7076 15.034 15.3469V13.7143C15.034 13.3536 14.8043 13.0612 14.5209 13.0612H1.17981C0.896404 13.0612 0.666687 13.3536 0.666687 13.7143V15.3469C0.666687 15.7076 0.896404 16 1.17981 16Z" fill="#999999"/>
</svg>
